<svg xmlns="http://www.w3.org/2000/svg" version="1.1" xmlns:xlink="http://www.w3.org/1999/xlink" xmlns:svgjs="http://svgjs.dev/svgjs" width="270" height="270"><svg version="1.1" xmlns="http://www.w3.org/2000/svg" width="270" height="270">
<path d="M0 0 C89.1 0 178.2 0 270 0 C270 89.1 270 178.2 270 270 C180.9 270 91.8 270 0 270 C0 180.9 0 91.8 0 0 Z " fill="#FFFFFF" transform="translate(0,0)"></path>
<path d="M0 0 C3.85819102 1.57746998 6.46024218 4.18523645 9.34039307 7.09988403 C9.86650547 7.62428759 10.39261787 8.14869114 10.93467307 8.68898571 C12.69593686 10.44695588 14.44995823 12.21197772 16.20410156 13.97705078 C17.46532968 15.23884304 18.72699836 16.50019508 19.98907471 17.76113892 C23.4147092 21.18619901 26.83413731 24.61739564 30.25249958 28.0497117 C33.82570972 31.6354146 37.40457504 35.21546388 40.98284912 38.79611206 C47.75826357 45.57774555 54.52856314 52.3644617 61.29704833 59.15301025 C69.00284553 66.88115323 76.71431472 74.60362575 84.42627001 82.3256228 C100.29050767 98.21077206 116.14759471 114.10304335 132 130 C130.42253002 133.85819102 127.81476355 136.46024218 124.90011597 139.34039307 C124.37571241 139.86650547 123.85130886 140.39261787 123.31101429 140.93467307 C121.55304412 142.69593686 119.78802228 144.44995823 118.02294922 146.20410156 C116.76115696 147.46532968 115.49980492 148.72699836 114.23886108 149.98907471 C110.81380099 153.4147092 107.38260436 156.83413731 103.9502883 160.25249958 C100.3645854 163.82570972 96.78453612 167.40457504 93.20388794 170.98284912 C86.42225445 177.75826357 79.6355383 184.52856314 72.84698975 191.29704833 C65.11884677 199.00284553 57.39637425 206.71431472 49.6743772 214.42627001 C33.78922794 230.29050767 17.89695665 246.14759471 2 262 C-1.85819102 260.42253002 -4.46024218 257.81476355 -7.34039307 254.90011597 C-7.86650547 254.37571241 -8.39261787 253.85130886 -8.93467307 253.31101429 C-10.69593686 251.55304412 -12.44995823 249.78802228 -14.20410156 248.02294922 C-15.46532968 246.76115696 -16.72699836 245.49980492 -17.98907471 244.23886108 C-21.4147092 240.81380099 -24.83413731 237.38260436 -28.25249958 233.9502883 C-31.82570972 230.3645854 -35.40457504 226.78453612 -38.98284912 223.20388794 C-45.75826357 216.42225445 -52.52856314 209.6355383 -59.29704833 202.84698975 C-67.00284553 195.11884677 -74.71431472 187.39637425 -82.42627001 179.6743772 C-98.29050767 163.78922794 -114.14759471 147.89695665 -130 132 C-128.42253002 128.14180898 -125.81476355 125.53975782 -122.90011597 122.65960693 C-122.37571241 122.13349453 -121.85130886 121.60738213 -121.31101429 121.06532693 C-119.55304412 119.30406314 -117.78802228 117.55004177 -116.02294922 115.79589844 C-114.76115696 114.53467032 -113.49980492 113.27300164 -112.23886108 112.01092529 C-108.81380099 108.5852908 -105.38260436 105.16586269 -101.9502883 101.74750042 C-98.3645854 98.17429028 -94.78453612 94.59542496 -91.20388794 91.01715088 C-84.42225445 84.24173643 -77.6355383 77.47143686 -70.84698975 70.70295167 C-63.11884677 62.99715447 -55.39637425 55.28568528 -47.6743772 47.57372999 C-31.78922794 31.70949233 -15.89695665 15.85240529 0 0 Z " fill="#FCFCFC" transform="translate(134,3)"></path>
<path d="M0 0 C3.85819102 1.57746998 6.46024218 4.18523645 9.34039307 7.09988403 C9.86650547 7.62428759 10.39261787 8.14869114 10.93467307 8.68898571 C12.69593686 10.44695588 14.44995823 12.21197772 16.20410156 13.97705078 C17.46532968 15.23884304 18.72699836 16.50019508 19.98907471 17.76113892 C23.4147092 21.18619901 26.83413731 24.61739564 30.25249958 28.0497117 C33.82570972 31.6354146 37.40457504 35.21546388 40.98284912 38.79611206 C47.75826357 45.57774555 54.52856314 52.3644617 61.29704833 59.15301025 C69.00284553 66.88115323 76.71431472 74.60362575 84.42627001 82.3256228 C100.29050767 98.21077206 116.14759471 114.10304335 132 130 C130.42253002 133.85819102 127.81476355 136.46024218 124.90011597 139.34039307 C124.37571241 139.86650547 123.85130886 140.39261787 123.31101429 140.93467307 C121.55304412 142.69593686 119.78802228 144.44995823 118.02294922 146.20410156 C116.76115696 147.46532968 115.49980492 148.72699836 114.23886108 149.98907471 C110.81380099 153.4147092 107.38260436 156.83413731 103.9502883 160.25249958 C100.3645854 163.82570972 96.78453612 167.40457504 93.20388794 170.98284912 C86.42225445 177.75826357 79.6355383 184.52856314 72.84698975 191.29704833 C65.11884677 199.00284553 57.39637425 206.71431472 49.6743772 214.42627001 C33.78922794 230.29050767 17.89695665 246.14759471 2 262 C-1.85819102 260.42253002 -4.46024218 257.81476355 -7.34039307 254.90011597 C-7.86650547 254.37571241 -8.39261787 253.85130886 -8.93467307 253.31101429 C-10.69593686 251.55304412 -12.44995823 249.78802228 -14.20410156 248.02294922 C-15.46532968 246.76115696 -16.72699836 245.49980492 -17.98907471 244.23886108 C-21.4147092 240.81380099 -24.83413731 237.38260436 -28.25249958 233.9502883 C-31.82570972 230.3645854 -35.40457504 226.78453612 -38.98284912 223.20388794 C-45.75826357 216.42225445 -52.52856314 209.6355383 -59.29704833 202.84698975 C-67.00284553 195.11884677 -74.71431472 187.39637425 -82.42627001 179.6743772 C-98.29050767 163.78922794 -114.14759471 147.89695665 -130 132 C-128.42253002 128.14180898 -125.81476355 125.53975782 -122.90011597 122.65960693 C-122.37571241 122.13349453 -121.85130886 121.60738213 -121.31101429 121.06532693 C-119.55304412 119.30406314 -117.78802228 117.55004177 -116.02294922 115.79589844 C-114.76115696 114.53467032 -113.49980492 113.27300164 -112.23886108 112.01092529 C-108.81380099 108.5852908 -105.38260436 105.16586269 -101.9502883 101.74750042 C-98.3645854 98.17429028 -94.78453612 94.59542496 -91.20388794 91.01715088 C-84.42225445 84.24173643 -77.6355383 77.47143686 -70.84698975 70.70295167 C-63.11884677 62.99715447 -55.39637425 55.28568528 -47.6743772 47.57372999 C-31.78922794 31.70949233 -15.89695665 15.85240529 0 0 Z M-1.68289375 39.4367981 C-2.3594898 40.11523773 -3.03608585 40.79367737 -3.73318481 41.49267578 C-4.89846207 42.65382904 -4.89846207 42.65382904 -6.08728027 43.83843994 C-6.94035767 44.69870789 -7.79343506 45.55897583 -8.67236328 46.4453125 C-10.0187941 47.79130524 -10.0187941 47.79130524 -11.39242554 49.16448975 C-13.85953745 51.63102605 -16.32041933 54.10369584 -18.78026438 56.5774765 C-21.34985432 59.15953921 -23.92508048 61.73596773 -26.49972534 64.31298828 C-31.37691057 69.19639847 -36.24897371 74.08488612 -41.11923683 78.97519875 C-46.66300561 84.541295 -52.21243067 90.10173707 -57.76234841 95.6617012 C-69.18122406 107.10150184 -80.59294192 118.54841534 -92 130 C-90.5746718 133.24521921 -88.84594258 135.40153915 -86.34274292 137.89776611 C-85.58271973 138.66053864 -84.82269653 139.42331116 -84.03964233 140.209198 C-83.20526642 141.03638336 -82.3708905 141.86356873 -81.51123047 142.71582031 C-80.63311707 143.59422577 -79.75500366 144.47263123 -78.85028076 145.37765503 C-76.44496569 147.78181611 -74.0353008 150.18145536 -71.62359381 152.57919407 C-69.10291801 155.08736128 -66.58791065 157.60119926 -64.07229614 160.11444092 C-59.30937182 164.87115086 -54.54137253 169.62273986 -49.77152836 174.37250972 C-44.34079612 179.7808817 -38.91574666 185.19493866 -33.49116683 190.60948038 C-22.33375525 201.7459909 -11.16922952 212.87534142 0 224 C3.24521921 222.5746718 5.40153915 220.84594258 7.89776611 218.34274292 C8.66053864 217.58271973 9.42331116 216.82269653 10.209198 216.03964233 C11.03638336 215.20526642 11.86356873 214.3708905 12.71582031 213.51123047 C13.59422577 212.63311707 14.47263123 211.75500366 15.37765503 210.85028076 C17.78181611 208.44496569 20.18145536 206.0353008 22.57919407 203.62359381 C25.08736128 201.10291801 27.60119926 198.58791065 30.11444092 196.07229614 C34.87115086 191.30937182 39.62273986 186.54137253 44.37250972 181.77152836 C49.7808817 176.34079612 55.19493866 170.91574666 60.60948038 165.49116683 C71.7459909 154.33375525 82.87534142 143.16922952 94 132 C92.57580638 128.76089586 90.85033282 126.59921833 88.35620117 124.10223389 C87.5990683 123.33946136 86.84193542 122.57668884 86.06185913 121.790802 C85.23062531 120.96361664 84.39939148 120.13643127 83.54296875 119.28417969 C82.66806793 118.40577423 81.79316711 117.52736877 80.89175415 116.62234497 C78.49473022 114.21802943 76.09329427 111.81829839 73.68945694 109.42080593 C71.17563656 106.91205017 68.6667007 104.39841724 66.15698242 101.88555908 C61.94385886 97.66879857 57.72653901 93.45626942 53.50683594 89.24609375 C48.62359421 84.37375016 43.74761835 79.49422419 38.87532711 74.61093211 C34.69382663 70.42036786 30.5084565 66.23369846 26.31980228 62.05028462 C23.81710849 59.55071373 21.31579725 57.04979959 18.81796265 54.54537201 C16.0366832 51.75726442 13.24731058 48.97734434 10.45703125 46.19824219 C9.62579742 45.3629599 8.7945636 44.52767761 7.93814087 43.66708374 C7.181008 42.91559052 6.42387512 42.16409729 5.64379883 41.38983154 C4.65492424 40.40208803 4.65492424 40.40208803 3.64607239 39.39439011 C1.3527117 37.45168122 0.59846994 37.48904649 -1.68289375 39.4367981 Z " fill="#FDFDFD" transform="translate(134,3)"></path>
<path d="M0 0 C3.85819102 1.57746998 6.46024218 4.18523645 9.34039307 7.09988403 C9.86650547 7.62428759 10.39261787 8.14869114 10.93467307 8.68898571 C12.69593686 10.44695588 14.44995823 12.21197772 16.20410156 13.97705078 C17.46532968 15.23884304 18.72699836 16.50019508 19.98907471 17.76113892 C23.4147092 21.18619901 26.83413731 24.61739564 30.25249958 28.0497117 C33.82570972 31.6354146 37.40457504 35.21546388 40.98284912 38.79611206 C47.75826357 45.57774555 54.52856314 52.3644617 61.29704833 59.15301025 C69.00284553 66.88115323 76.71431472 74.60362575 84.42627001 82.3256228 C100.29050767 98.21077206 116.14759471 114.10304335 132 130 C130.42253002 133.85819102 127.81476355 136.46024218 124.90011597 139.34039307 C124.37571241 139.86650547 123.85130886 140.39261787 123.31101429 140.93467307 C121.55304412 142.69593686 119.78802228 144.44995823 118.02294922 146.20410156 C116.76115696 147.46532968 115.49980492 148.72699836 114.23886108 149.98907471 C110.81380099 153.4147092 107.38260436 156.83413731 103.9502883 160.25249958 C100.3645854 163.82570972 96.78453612 167.40457504 93.20388794 170.98284912 C86.42225445 177.75826357 79.6355383 184.52856314 72.84698975 191.29704833 C65.11884677 199.00284553 57.39637425 206.71431472 49.6743772 214.42627001 C33.78922794 230.29050767 17.89695665 246.14759471 2 262 C-1.85819102 260.42253002 -4.46024218 257.81476355 -7.34039307 254.90011597 C-7.86650547 254.37571241 -8.39261787 253.85130886 -8.93467307 253.31101429 C-10.69593686 251.55304412 -12.44995823 249.78802228 -14.20410156 248.02294922 C-15.46532968 246.76115696 -16.72699836 245.49980492 -17.98907471 244.23886108 C-21.4147092 240.81380099 -24.83413731 237.38260436 -28.25249958 233.9502883 C-31.82570972 230.3645854 -35.40457504 226.78453612 -38.98284912 223.20388794 C-45.75826357 216.42225445 -52.52856314 209.6355383 -59.29704833 202.84698975 C-67.00284553 195.11884677 -74.71431472 187.39637425 -82.42627001 179.6743772 C-98.29050767 163.78922794 -114.14759471 147.89695665 -130 132 C-128.42253002 128.14180898 -125.81476355 125.53975782 -122.90011597 122.65960693 C-122.37571241 122.13349453 -121.85130886 121.60738213 -121.31101429 121.06532693 C-119.55304412 119.30406314 -117.78802228 117.55004177 -116.02294922 115.79589844 C-114.76115696 114.53467032 -113.49980492 113.27300164 -112.23886108 112.01092529 C-108.81380099 108.5852908 -105.38260436 105.16586269 -101.9502883 101.74750042 C-98.3645854 98.17429028 -94.78453612 94.59542496 -91.20388794 91.01715088 C-84.42225445 84.24173643 -77.6355383 77.47143686 -70.84698975 70.70295167 C-63.11884677 62.99715447 -55.39637425 55.28568528 -47.6743772 47.57372999 C-31.78922794 31.70949233 -15.89695665 15.85240529 0 0 Z M-1.95003986 16.70673752 C-2.75288001 17.51272007 -3.55572016 18.31870262 -4.38288879 19.14910889 C-5.30396927 20.06888519 -6.22504974 20.9886615 -7.17404175 21.93630981 C-8.19790319 22.96884561 -9.22167329 24.00147198 -10.24536133 25.03417969 C-11.32083724 26.11185553 -12.3967604 27.18908519 -13.47309875 28.26589966 C-15.79505672 30.59079766 -18.11381451 32.91882587 -20.43018532 35.24929047 C-24.09383162 38.9351555 -27.76450911 42.61396313 -31.436203 46.29180908 C-37.24573422 52.1127379 -43.05057803 57.93831566 -48.85341424 63.76591802 C-59.23594502 74.192692 -69.62395855 84.61399621 -80.01727313 95.03002095 C-83.66474136 98.68589046 -87.30938075 102.34455025 -90.9517647 106.00548506 C-93.22193961 108.2863241 -95.49416115 110.56511615 -97.76688957 112.84341049 C-98.81868945 113.89867317 -99.86961691 114.95480625 -100.91959381 116.01188278 C-102.35611328 117.45789847 -103.79605943 118.90050755 -105.23616028 120.34295654 C-106.0401315 121.1504472 -106.84410273 121.95793785 -107.67243671 122.78989792 C-110.01376957 125.01307468 -112.45027751 127.02143733 -115 129 C-114.46670225 133.0826311 -112.40882241 134.96134934 -109.55186462 137.80889893 C-108.85229553 138.51231293 -108.85229553 138.51231293 -108.13859373 139.22993731 C-106.57331595 140.80015827 -104.99755346 142.3594135 -103.42163086 143.91894531 C-102.29770066 145.04202936 -101.17443052 146.1657743 -100.05177307 147.29013062 C-97.00076021 150.3420053 -93.94057652 153.38453277 -90.87868953 156.42549229 C-87.68091145 159.60453485 -84.49160954 162.79205749 -81.30140686 165.97869873 C-75.25838334 172.01239261 -69.20775217 178.03839749 -63.15436512 184.061692 C-56.26344171 190.91910005 -49.38102032 197.78501398 -42.49930751 204.6516633 C-28.34232584 218.77727512 -14.17467651 232.89214603 0 247 C3.65544568 245.4602334 5.98265286 243.26405236 8.77093506 240.46957397 C9.46822373 239.77484857 9.46822373 239.77484857 10.17959905 239.06608832 C11.73357279 237.51540466 13.28029752 235.95768887 14.82714844 234.39990234 C15.94059514 233.28589142 17.05448258 232.17232085 18.16877747 231.05915833 C21.19153403 228.03697586 24.20808206 225.00866414 27.22356319 221.97922468 C30.37636236 218.81392779 33.53482159 215.65428918 36.69268799 212.49404907 C42.67124494 206.50927455 48.64468511 200.51941977 54.6163094 194.52772868 C61.41522889 187.70645886 68.21982445 180.89086337 75.02490568 174.07574153 C89.02293437 160.05680455 103.01381006 146.03074745 117 132 C115.46076679 128.35010333 113.26961961 126.01818741 110.48303223 123.22906494 C110.02129309 122.76420583 109.55955396 122.29934671 109.08382273 121.82040095 C107.53781868 120.2664295 105.98477608 118.71969302 104.43164062 117.17285156 C103.32088889 116.05938949 102.21056302 114.94550244 101.10063171 113.83122253 C98.08679174 110.80826358 95.06665811 107.79166663 92.04508781 104.77643681 C88.88664401 101.62305297 85.73307873 98.4647965 82.57873535 95.30731201 C77.28280962 90.00774771 71.98268039 84.71241479 66.68017578 79.41943359 C60.54271205 73.29286541 54.41250182 67.15911016 48.28598833 61.02159333 C43.03018691 55.75672934 37.77051472 50.49575617 32.50756025 45.23804259 C29.36211678 42.09572306 26.21805428 38.95205385 23.07746887 35.80487823 C20.12713779 32.84878889 17.17199379 29.89759859 14.21299171 26.95018959 C13.12521918 25.86507133 12.03916306 24.77822946 10.954916 23.68958855 C9.48015686 22.20940294 7.99943966 20.73545528 6.51696777 19.26300049 C5.68810814 18.43489491 4.8592485 17.60678932 4.00527191 16.75358963 C1.31586727 14.40173297 0.74121345 14.35126618 -1.95003986 16.70673752 Z " fill="#0F0F0F" transform="translate(134,3)"></path>
<path d="M0 0 C3.40353022 1.47122616 5.61255749 3.36942513 8.21777344 5.99072266 C9.03832214 6.81142242 9.85887085 7.63212219 10.70428467 8.47769165 C11.58046448 9.36419403 12.45664429 10.25069641 13.359375 11.1640625 C14.26375305 12.07127045 15.1681311 12.97847839 16.09991455 13.91317749 C18.49796458 16.31884419 20.88994618 18.73045736 23.28070068 21.14337158 C25.72385171 23.60702344 28.17271206 26.06498577 30.62109375 28.5234375 C35.41933788 33.34373573 40.21182732 38.16969843 45 43 C43.52877384 46.40353022 41.63057487 48.61255749 39.00927734 51.21777344 C38.18857758 52.03832214 37.36787781 52.85887085 36.52230835 53.70428467 C35.63580597 54.58046448 34.74930359 55.45664429 33.8359375 56.359375 C32.92872955 57.26375305 32.02152161 58.1681311 31.08682251 59.09991455 C28.68115581 61.49796458 26.26954264 63.88994618 23.85662842 66.28070068 C21.39297656 68.72385171 18.93501423 71.17271206 16.4765625 73.62109375 C11.65626427 78.41933788 6.83030157 83.21182732 2 88 C-1.40353022 86.52877384 -3.61255749 84.63057487 -6.21777344 82.00927734 C-7.03832214 81.18857758 -7.85887085 80.36787781 -8.70428467 79.52230835 C-9.58046448 78.63580597 -10.45664429 77.74930359 -11.359375 76.8359375 C-12.26375305 75.92872955 -13.1681311 75.02152161 -14.09991455 74.08682251 C-16.49796458 71.68115581 -18.88994618 69.26954264 -21.28070068 66.85662842 C-23.72385171 64.39297656 -26.17271206 61.93501423 -28.62109375 59.4765625 C-33.41933788 54.65626427 -38.21182732 49.83030157 -43 45 C-41.52877384 41.59646978 -39.63057487 39.38744251 -37.00927734 36.78222656 C-35.77822769 35.5514035 -35.77822769 35.5514035 -34.52230835 34.29571533 C-33.63580597 33.41953552 -32.74930359 32.54335571 -31.8359375 31.640625 C-30.92872955 30.73624695 -30.02152161 29.8318689 -29.08682251 28.90008545 C-26.68115581 26.50203542 -24.26954264 24.11005382 -21.85662842 21.71929932 C-19.39297656 19.27614829 -16.93501423 16.82728794 -14.4765625 14.37890625 C-9.65626427 9.58066212 -4.83030157 4.78817268 0 0 Z " fill="#FDFDFD" transform="translate(134,90)"></path>
<path d="M0 0 C0.66 0 1.32 0 2 0 C3.46632385 1.48509216 3.46632385 1.48509216 5.16235352 3.52905273 C8.73349771 7.72615133 12.50099122 11.64616759 16.40234375 15.53515625 C17.08373917 16.21750839 17.76513458 16.89986053 18.46717834 17.60289001 C19.89705741 19.03344437 21.32817911 20.46275767 22.76049805 21.89086914 C24.93197711 24.05699074 27.09806325 26.22840174 29.26367188 28.40039062 C30.66374202 29.79979987 32.06412238 31.19889884 33.46484375 32.59765625 C34.41991066 33.55575951 34.41991066 33.55575951 35.39427185 34.53321838 C39.2039485 38.32344665 43.12505721 41.92752657 47.20362854 45.42724609 C49.92537114 47.81017825 52.46649543 50.35760732 55 52.9375 C55.73283203 53.67709961 55.73283203 53.67709961 56.48046875 54.43164062 C57.65603525 55.61873229 58.82838826 56.80900498 60 58 C58.3993244 61.97526224 55.62856444 64.64020304 52.63232422 67.59472656 C52.08583221 68.14151062 51.53934021 68.68829468 50.97628784 69.25164795 C49.17378907 71.05275649 47.36431604 72.84668247 45.5546875 74.640625 C44.30157633 75.89000495 43.04890681 77.13982801 41.79666138 78.39007568 C38.50324045 81.67586872 35.20385709 84.9556107 31.90319824 88.23413086 C28.53471006 91.58214253 25.1718924 94.93583907 21.80859375 98.2890625 C15.21126824 104.86495296 8.60763017 111.43446516 2 118 C-1.96392259 116.3991259 -4.63712589 113.64517519 -7.59472656 110.6640625 C-8.14151062 110.12078308 -8.68829468 109.57750366 -9.25164795 109.01776123 C-11.05302948 107.22516477 -12.84701768 105.42537258 -14.640625 103.625 C-15.89014929 102.37682289 -17.13997035 101.12894281 -18.39007568 99.88134766 C-21.00582968 97.26854023 -23.61793646 94.65215399 -26.22753906 92.03320312 C-29.57907676 88.67024761 -32.93954389 85.316381 -36.30276871 81.96511841 C-38.88335399 79.39174416 -41.45917646 76.81364522 -44.03356171 74.23406982 C-45.27130915 72.99498501 -46.5105528 71.75739297 -47.75128937 70.52130127 C-49.48001837 68.79762761 -51.20224581 67.06771477 -52.92285156 65.3359375 C-53.69888733 64.56597443 -53.69888733 64.56597443 -54.49060059 63.78045654 C-58 60.22853184 -58 60.22853184 -58 58 C-56.65306091 56.67182922 -56.65306091 56.67182922 -54.71655273 55.08325195 C-49.02946061 50.2428203 -43.8057962 44.95026397 -38.53515625 39.66796875 C-37.45053933 38.5840268 -36.36577412 37.50023322 -35.28086853 36.4165802 C-33.02440563 34.1615814 -30.76973599 31.9048093 -28.51635742 29.64672852 C-25.62571268 26.75034593 -22.73054545 23.8585318 -19.83405399 20.96799755 C-17.60097263 18.7385217 -15.37026838 16.50667972 -13.1402874 14.27410316 C-12.07287448 13.20602307 -11.00471796 12.13868557 -9.93580818 11.0721035 C-8.44964937 9.58847546 -6.96671846 8.10169552 -5.48461914 6.61401367 C-4.21842491 5.34662605 -4.21842491 5.34662605 -2.926651 4.05363464 C-0.95490001 2.14798033 -0.95490001 2.14798033 0 0 Z M-1.87295532 16.63244629 C-2.63240448 17.39633667 -3.39185364 18.16022705 -4.17431641 18.94726562 C-5.03505768 19.80815796 -5.89579895 20.66905029 -6.78262329 21.55603027 C-7.72237647 22.5059979 -8.66202028 23.45607373 -9.6015625 24.40625 C-10.56233865 25.37075516 -11.5235565 26.33482051 -12.48519897 27.29846191 C-15.01806973 29.83897797 -17.54487802 32.38544242 -20.07049561 34.9331665 C-22.64754846 37.5306585 -25.23025484 40.12251535 -27.8125 42.71484375 C-32.88056922 47.80437868 -37.94225091 52.90020708 -43 58 C-41.52877384 61.40353022 -39.63057487 63.61255749 -37.00927734 66.21777344 C-36.18857758 67.03832214 -35.36787781 67.85887085 -34.52230835 68.70428467 C-33.63580597 69.58046448 -32.74930359 70.45664429 -31.8359375 71.359375 C-30.92872955 72.26375305 -30.02152161 73.1681311 -29.08682251 74.09991455 C-26.68115581 76.49796458 -24.26954264 78.88994618 -21.85662842 81.28070068 C-19.39297656 83.72385171 -16.93501423 86.17271206 -14.4765625 88.62109375 C-9.65626427 93.41933788 -4.83030157 98.21182732 0 103 C3.40353022 101.52877384 5.61255749 99.63057487 8.21777344 97.00927734 C9.4485965 95.77822769 9.4485965 95.77822769 10.70428467 94.52230835 C11.58046448 93.63580597 12.45664429 92.74930359 13.359375 91.8359375 C14.26375305 90.92872955 15.1681311 90.02152161 16.09991455 89.08682251 C18.49796458 86.68115581 20.88994618 84.26954264 23.28070068 81.85662842 C25.72385171 79.39297656 28.17271206 76.93501423 30.62109375 74.4765625 C35.41933788 69.65626427 40.21182732 64.83030157 45 60 C43.53091388 56.61037866 41.64216474 54.38914109 39.04101562 51.78222656 C38.22677124 50.96167786 37.41252686 50.14112915 36.5736084 49.29571533 C35.69338013 48.41953552 34.81315186 47.54335571 33.90625 46.640625 C33.0037854 45.73624695 32.1013208 44.8318689 31.17150879 43.90008545 C29.26404896 41.99126509 27.35469588 40.08459451 25.44189453 38.18115234 C22.98693691 35.73762119 20.54111007 33.28517765 18.09784698 30.82995987 C15.76799406 28.49116087 13.43055469 26.15997507 11.09375 23.828125 C10.21352173 22.94384827 9.33329346 22.05957153 8.4263916 21.14849854 C7.61214722 20.34055847 6.79790283 19.53261841 5.95898438 18.70019531 C4.88215393 17.62575165 4.88215393 17.62575165 3.78356934 16.52960205 C1.2741664 14.37751982 0.61207902 14.46651897 -1.87295532 16.63244629 Z " fill="#0C0C0C" transform="translate(134,75)"></path>
<path d="M0 0 C3.24521921 1.4253282 5.40153915 3.15405742 7.89776611 5.65725708 C8.66053864 6.41728027 9.42331116 7.17730347 10.209198 7.96035767 C11.44997604 9.21192154 11.44997604 9.21192154 12.71582031 10.48876953 C13.59422577 11.36688293 14.47263123 12.24499634 15.37765503 13.14971924 C17.78181611 15.55503431 20.18145536 17.9646992 22.57919407 20.37640619 C25.08736128 22.89708199 27.60119926 25.41208935 30.11444092 27.92770386 C34.87115086 32.69062818 39.62273986 37.45862747 44.37250972 42.22847164 C49.7808817 47.65920388 55.19493866 53.08425334 60.60948038 58.50883317 C71.7459909 69.66624475 82.87534142 80.83077048 94 92 C92.5746718 95.24521921 90.84594258 97.40153915 88.34274292 99.89776611 C87.58271973 100.66053864 86.82269653 101.42331116 86.03964233 102.209198 C84.78807846 103.44997604 84.78807846 103.44997604 83.51123047 104.71582031 C82.63311707 105.59422577 81.75500366 106.47263123 80.85028076 107.37765503 C78.44496569 109.78181611 76.0353008 112.18145536 73.62359381 114.57919407 C71.10291801 117.08736128 68.58791065 119.60119926 66.07229614 122.11444092 C61.30937182 126.87115086 56.54137253 131.62273986 51.77152836 136.37250972 C46.34079612 141.7808817 40.91574666 147.19493866 35.49116683 152.60948038 C24.33375525 163.7459909 13.16922952 174.87534142 2 186 C-1.24521921 184.5746718 -3.40153915 182.84594258 -5.89776611 180.34274292 C-6.66053864 179.58271973 -7.42331116 178.82269653 -8.209198 178.03964233 C-9.44997604 176.78807846 -9.44997604 176.78807846 -10.71582031 175.51123047 C-11.59422577 174.63311707 -12.47263123 173.75500366 -13.37765503 172.85028076 C-15.78181611 170.44496569 -18.18145536 168.0353008 -20.57919407 165.62359381 C-23.08736128 163.10291801 -25.60119926 160.58791065 -28.11444092 158.07229614 C-32.87115086 153.30937182 -37.62273986 148.54137253 -42.37250972 143.77152836 C-47.7808817 138.34079612 -53.19493866 132.91574666 -58.60948038 127.49116683 C-69.7459909 116.33375525 -80.87534142 105.16922952 -92 94 C-90.5746718 90.75478079 -88.84594258 88.59846085 -86.34274292 86.10223389 C-85.58271973 85.33946136 -84.82269653 84.57668884 -84.03964233 83.790802 C-82.78807846 82.55002396 -82.78807846 82.55002396 -81.51123047 81.28417969 C-80.63311707 80.40577423 -79.75500366 79.52736877 -78.85028076 78.62234497 C-76.44496569 76.21818389 -74.0353008 73.81854464 -71.62359381 71.42080593 C-69.10291801 68.91263872 -66.58791065 66.39880074 -64.07229614 63.88555908 C-59.30937182 59.12884914 -54.54137253 54.37726014 -49.77152836 49.62749028 C-44.34079612 44.2191183 -38.91574666 38.80506134 -33.49116683 33.39051962 C-22.33375525 22.2540091 -11.16922952 11.12465858 0 0 Z M-1.57357216 8.3274765 C-2.1985478 8.95429573 -2.82352345 9.58111496 -3.46743774 10.22692871 C-4.18539017 10.94213181 -4.90334259 11.6573349 -5.64305115 12.39421082 C-6.43067337 13.18902359 -7.21829559 13.98383636 -8.02978516 14.80273438 C-9.27380348 16.04631462 -9.27380348 16.04631462 -10.54295349 17.3150177 C-12.82119288 19.59441445 -15.09492331 21.87819849 -17.36676073 24.16397285 C-19.74015924 26.54984555 -22.11919542 28.93008278 -24.49765015 31.31091309 C-29.00296881 35.82245629 -33.50316362 40.33907505 -38.00155866 44.85752058 C-43.12211814 50.00040882 -48.24833511 55.13764184 -53.37504506 60.27439785 C-63.9230227 70.84329953 -74.46384231 81.41931398 -85 92 C-83.61565262 95.11465846 -82.01680359 97.23098131 -79.60848999 99.63201904 C-78.90736588 100.33589249 -78.20624176 101.03976593 -77.48387146 101.76496887 C-76.33049034 102.90756416 -76.33049034 102.90756416 -75.15380859 104.07324219 C-73.93905098 105.28843788 -73.93905098 105.28843788 -72.69975281 106.52818298 C-70.02069416 109.20584785 -67.33461989 111.87635816 -64.6484375 114.546875 C-62.7899801 116.40160245 -60.93196365 118.25677184 -59.07437134 120.11236572 C-54.68331439 124.49720961 -50.28718468 128.87693083 -45.88920653 133.25483155 C-40.8816809 138.2399928 -35.87984156 143.23084273 -30.87847018 148.22217703 C-20.59195943 158.48778972 -10.29833103 168.74624548 0 179 C3.11465846 177.61565262 5.23098131 176.01680359 7.63201904 173.60848999 C8.33589249 172.90736588 9.03976593 172.20624176 9.76496887 171.48387146 C10.52669907 170.71495071 11.28842926 169.94602997 12.07324219 169.15380859 C12.88337265 168.34397018 13.69350311 167.53413177 14.52818298 166.69975281 C17.20584785 164.02069416 19.87635816 161.33461989 22.546875 158.6484375 C24.40160245 156.7899801 26.25677184 154.93196365 28.11236572 153.07437134 C32.49720961 148.68331439 36.87693083 144.28718468 41.25483155 139.88920653 C46.2399928 134.8816809 51.23084273 129.87984156 56.22217703 124.87847018 C66.48778972 114.59195943 76.74624548 104.29833103 87 94 C85.61696672 90.89161601 84.02080903 88.76981866 81.62194824 86.36798096 C80.92371445 85.66410751 80.22548065 84.96023407 79.50608826 84.23503113 C78.7403096 83.47330093 77.97453094 82.71157074 77.18554688 81.92675781 C76.37892105 81.11662735 75.57229523 80.30649689 74.7412262 79.47181702 C72.07207993 76.79386362 69.39567892 74.1232971 66.71875 71.453125 C64.86522602 69.59825435 63.01199907 67.74308685 61.15905762 65.88763428 C57.2754823 62.00042269 53.38771369 58.11744244 49.49755859 54.23681641 C44.99603614 49.74619316 40.50178469 45.24838949 36.01121283 40.74681783 C31.69300165 36.41845201 27.3692057 32.09571125 23.04298401 27.77535248 C21.20102402 25.93473076 19.36055984 24.09261093 17.52159119 22.24900055 C14.9573395 19.67969738 12.38681214 17.11684666 9.81445312 14.55566406 C9.04867447 13.78583694 8.28289581 13.01600983 7.49391174 12.22285461 C6.79567795 11.53026047 6.09744415 10.83766632 5.37805176 10.12408447 C4.77042244 9.51720921 4.16279312 8.91033394 3.53675079 8.28506851 C1.3817674 6.48301882 0.56806674 6.52077492 -1.57357216 8.3274765 Z " fill="#070707" transform="translate(134,41)"></path>
<path d="M0 0 C1.65 1.65 3.3 3.3 5 5 C1.37 8.63 -2.26 12.26 -6 16 C-4.33333333 20.33333333 -4.33333333 20.33333333 0 22 C2.97 19.03 5.94 16.06 9 13 C10.32 13.66 11.64 14.32 13 15 C12.44828634 18.8447546 10.78537669 20.50873547 8 23.125 C5.10714412 25.77060724 5.10714412 25.77060724 3 29 C3.5775 29.268125 4.155 29.53625 4.75 29.8125 C7 31 7 31 11 34 C16.445 28.555 16.445 28.555 22 23 C23.32 23.66 24.64 24.32 26 25 C26 29 26 29 24.53125 30.92285156 C23.52578125 31.89689941 23.52578125 31.89689941 22.5 32.890625 C21.778125 33.59960938 21.05625 34.30859375 20.3125 35.0390625 C19.549375 35.76867187 18.78625 36.49828125 18 37.25 C17.236875 37.99507812 16.47375 38.74015625 15.6875 39.5078125 C13.80031094 41.34782184 11.90443371 43.17787227 10 45 C3.81865131 39.89551178 -1.79822878 34.31705058 -7.4375 28.625 C-8.35982422 27.69816406 -9.28214844 26.77132812 -10.23242188 25.81640625 C-12.49058625 23.54654154 -14.74636942 21.27436462 -17 19 C-15.60652624 15.84795019 -13.97514921 13.73828227 -11.5234375 11.328125 C-10.51796875 10.33232422 -10.51796875 10.33232422 -9.4921875 9.31640625 C-8.79351562 8.63449219 -8.09484375 7.95257813 -7.375 7.25 C-6.66859375 6.55261719 -5.9621875 5.85523437 -5.234375 5.13671875 C-3.49401297 3.41987512 -1.74915019 1.70788168 0 0 Z " fill="#090909" transform="translate(130,111)"></path>
</svg><style>@media (prefers-color-scheme: light) { :root { filter: none; } }
@media (prefers-color-scheme: dark) { :root { filter: none; } }
</style></svg>